<mxfile host="Electron" agent="Mozilla/5.0 (Windows NT 10.0; Win64; x64) AppleWebKit/537.36 (KHTML, like Gecko) draw.io/24.7.17 Chrome/128.0.6613.36 Electron/32.0.1 Safari/537.36" version="24.7.17">
  <diagram name="Page-1" id="28vIP4uq-4pLIOtRiZFF">
    <mxGraphModel dx="1036" dy="607" grid="1" gridSize="10" guides="1" tooltips="1" connect="1" arrows="1" fold="1" page="1" pageScale="1" pageWidth="850" pageHeight="1100" math="0" shadow="0">
      <root>
        <mxCell id="0" />
        <mxCell id="1" parent="0" />
        <mxCell id="EPOxrBSnFGEGiCdTJ170-1" value="Cluster" style="rounded=0;whiteSpace=wrap;html=1;" vertex="1" parent="1">
          <mxGeometry x="80" y="80" width="280" height="320" as="geometry" />
        </mxCell>
        <mxCell id="EPOxrBSnFGEGiCdTJ170-3" value="Ingress" style="rounded=0;whiteSpace=wrap;html=1;" vertex="1" parent="1">
          <mxGeometry x="80" y="80" width="280" height="60" as="geometry" />
        </mxCell>
        <mxCell id="EPOxrBSnFGEGiCdTJ170-22" value="Follows business logic" style="edgeStyle=orthogonalEdgeStyle;rounded=0;orthogonalLoop=1;jettySize=auto;html=1;exitX=1;exitY=0.5;exitDx=0;exitDy=0;entryX=0;entryY=0.5;entryDx=0;entryDy=0;fillColor=#60a917;strokeColor=#2D7600;startArrow=classic;startFill=1;spacingBottom=130;" edge="1" parent="1" source="EPOxrBSnFGEGiCdTJ170-5" target="EPOxrBSnFGEGiCdTJ170-16">
          <mxGeometry relative="1" as="geometry">
            <Array as="points">
              <mxPoint x="400" y="330" />
              <mxPoint x="400" y="120" />
            </Array>
          </mxGeometry>
        </mxCell>
        <mxCell id="EPOxrBSnFGEGiCdTJ170-5" value="Container App&lt;br&gt;Owns DB&lt;br&gt;Applies business logic" style="whiteSpace=wrap;html=1;aspect=fixed;" vertex="1" parent="1">
          <mxGeometry x="100" y="290" width="80" height="80" as="geometry" />
        </mxCell>
        <mxCell id="EPOxrBSnFGEGiCdTJ170-19" style="edgeStyle=orthogonalEdgeStyle;rounded=0;orthogonalLoop=1;jettySize=auto;html=1;exitX=0.5;exitY=1;exitDx=0;exitDy=0;entryX=0.5;entryY=0;entryDx=0;entryDy=0;startArrow=classic;startFill=1;fillColor=#60a917;strokeColor=#2D7600;" edge="1" parent="1" source="EPOxrBSnFGEGiCdTJ170-6" target="EPOxrBSnFGEGiCdTJ170-11">
          <mxGeometry relative="1" as="geometry" />
        </mxCell>
        <mxCell id="EPOxrBSnFGEGiCdTJ170-23" value="Bypasses business logic" style="edgeStyle=orthogonalEdgeStyle;rounded=0;orthogonalLoop=1;jettySize=auto;html=1;exitX=0;exitY=0.5;exitDx=0;exitDy=0;entryX=1;entryY=0.5;entryDx=0;entryDy=0;fillColor=#d80073;strokeColor=#A50040;startArrow=classic;startFill=1;" edge="1" parent="1" source="EPOxrBSnFGEGiCdTJ170-6" target="EPOxrBSnFGEGiCdTJ170-16">
          <mxGeometry relative="1" as="geometry">
            <Array as="points">
              <mxPoint x="570" y="320" />
              <mxPoint x="570" y="120" />
            </Array>
          </mxGeometry>
        </mxCell>
        <mxCell id="EPOxrBSnFGEGiCdTJ170-6" value="External App&lt;br&gt;Read and change data" style="whiteSpace=wrap;html=1;aspect=fixed;" vertex="1" parent="1">
          <mxGeometry x="680" y="280" width="80" height="80" as="geometry" />
        </mxCell>
        <mxCell id="EPOxrBSnFGEGiCdTJ170-8" value="DB" style="shape=cylinder3;whiteSpace=wrap;html=1;boundedLbl=1;backgroundOutline=1;size=15;" vertex="1" parent="1">
          <mxGeometry x="450" y="300" width="60" height="60" as="geometry" />
        </mxCell>
        <mxCell id="EPOxrBSnFGEGiCdTJ170-20" style="edgeStyle=orthogonalEdgeStyle;rounded=0;orthogonalLoop=1;jettySize=auto;html=1;exitX=0;exitY=0.5;exitDx=0;exitDy=0;entryX=0.5;entryY=1;entryDx=0;entryDy=0;fillColor=#60a917;strokeColor=#2D7600;startArrow=classic;startFill=1;" edge="1" parent="1" source="EPOxrBSnFGEGiCdTJ170-11" target="EPOxrBSnFGEGiCdTJ170-5">
          <mxGeometry relative="1" as="geometry" />
        </mxCell>
        <mxCell id="EPOxrBSnFGEGiCdTJ170-11" value="Redis / &lt;br&gt;NATS / &lt;br&gt;ServiceBus" style="whiteSpace=wrap;html=1;aspect=fixed;" vertex="1" parent="1">
          <mxGeometry x="680" y="480" width="80" height="80" as="geometry" />
        </mxCell>
        <mxCell id="EPOxrBSnFGEGiCdTJ170-21" style="edgeStyle=orthogonalEdgeStyle;rounded=0;orthogonalLoop=1;jettySize=auto;html=1;exitX=0.5;exitY=1;exitDx=0;exitDy=0;" edge="1" parent="1" source="EPOxrBSnFGEGiCdTJ170-16" target="EPOxrBSnFGEGiCdTJ170-8">
          <mxGeometry relative="1" as="geometry" />
        </mxCell>
        <mxCell id="EPOxrBSnFGEGiCdTJ170-16" value="MS SQL" style="whiteSpace=wrap;html=1;aspect=fixed;" vertex="1" parent="1">
          <mxGeometry x="440" y="80" width="80" height="80" as="geometry" />
        </mxCell>
        <mxCell id="EPOxrBSnFGEGiCdTJ170-17" value="KeyVault" style="whiteSpace=wrap;html=1;aspect=fixed;" vertex="1" parent="1">
          <mxGeometry x="600" y="80" width="80" height="80" as="geometry" />
        </mxCell>
        <mxCell id="EPOxrBSnFGEGiCdTJ170-18" value="ServiceBus" style="whiteSpace=wrap;html=1;aspect=fixed;" vertex="1" parent="1">
          <mxGeometry x="760" y="80" width="80" height="80" as="geometry" />
        </mxCell>
        <mxCell id="EPOxrBSnFGEGiCdTJ170-24" value="Notifies cluster&lt;br&gt;regarding changes" style="shape=flexArrow;endArrow=classic;html=1;rounded=0;" edge="1" parent="1">
          <mxGeometry width="50" height="50" relative="1" as="geometry">
            <mxPoint x="140" y="290" as="sourcePoint" />
            <mxPoint x="140" y="210" as="targetPoint" />
          </mxGeometry>
        </mxCell>
      </root>
    </mxGraphModel>
  </diagram>
</mxfile>
